<svg width="30" height="30" viewBox="0 0 30 30" fill="none" xmlns="http://www.w3.org/2000/svg">
<path d="M10.9402 19.0597L2.18486 27.815" stroke="#262163" stroke-width="1.5" stroke-linecap="round" stroke-linejoin="round"/>
<path d="M27.6147 2.25281L18.78 11.0875" stroke="#262163" stroke-width="1.5" stroke-linecap="round" stroke-linejoin="round"/>
<path d="M11.2039 11.204L2.12842 2.12854" stroke="#262163" stroke-width="1.5" stroke-linecap="round" stroke-linejoin="round"/>
<path d="M27.6866 27.6866L18.7834 18.7834" stroke="#262163" stroke-width="1.5" stroke-linecap="round" stroke-linejoin="round"/>
<path d="M10.1963 27.6844C10.1554 28.0966 10.4563 28.4639 10.8685 28.5049C11.2807 28.5458 11.648 28.2449 11.689 27.8327L10.1963 27.6844ZM10.9426 19.0573L11.6886 18.9798C11.6519 18.6269 11.373 18.348 11.0201 18.3113L10.9426 19.0573ZM2.16726 18.311C1.75507 18.3519 1.45412 18.7192 1.49505 19.1314C1.53599 19.5436 1.90332 19.8446 2.31551 19.8036L2.16726 18.311ZM11.689 27.8327C12.0386 24.3118 12.0392 22.3535 11.6886 18.9798L10.1966 19.1348C10.5363 22.4032 10.5364 24.2598 10.1963 27.6844L11.689 27.8327ZM2.31551 19.8036C5.74014 19.4635 7.59669 19.4637 10.8651 19.8033L11.0201 18.3113C7.64638 17.9607 5.68812 17.9613 2.16726 18.311L2.31551 19.8036Z" fill="#262163"/>
<path d="M2.57339 10.4544C2.16121 10.4134 1.79388 10.7144 1.75294 11.1266C1.712 11.5387 2.01296 11.9061 2.42514 11.947L2.57339 10.4544ZM11.2005 11.2007L11.278 11.9467C11.6309 11.91 11.9098 11.6311 11.9465 11.2782L11.2005 11.2007ZM11.9468 2.42532C11.9059 2.01313 11.5386 1.71217 11.1264 1.75311C10.7142 1.79405 10.4132 2.16138 10.4542 2.57356L11.9468 2.42532ZM2.42514 11.947C5.946 12.2967 7.90426 12.2972 11.278 11.9467L11.123 10.4547C7.85457 10.7943 5.99803 10.7945 2.57339 10.4544L2.42514 11.947ZM10.4542 2.57356C10.7943 5.9982 10.7942 7.85474 10.4545 11.1232L11.9465 11.2782C12.2971 7.90444 12.2965 5.94617 11.9468 2.42532L10.4542 2.57356Z" fill="#262163"/>
<path d="M19.5356 2.57351C19.5766 2.16133 19.2756 1.794 18.8634 1.75306C18.4512 1.71212 18.0839 2.01308 18.043 2.42527L19.5356 2.57351ZM18.7893 11.2006L18.0433 11.2782C18.08 11.631 18.3589 11.9099 18.7118 11.9466L18.7893 11.2006ZM27.5647 11.947C27.9769 11.906 28.2778 11.5387 28.2369 11.1265C28.1959 10.7143 27.8286 10.4134 27.4164 10.4543L27.5647 11.947ZM18.043 2.42527C17.6933 5.94612 17.6927 7.90438 18.0433 11.2782L19.5353 11.1231C19.1957 7.85469 19.1955 5.99815 19.5356 2.57351L18.043 2.42527ZM27.4164 10.4543C23.9918 10.7944 22.1352 10.7943 18.8668 10.4547L18.7118 11.9466C22.0856 12.2972 24.0438 12.2966 27.5647 11.947L27.4164 10.4543Z" fill="#262163"/>
<path d="M27.4164 19.4972C27.8285 19.5381 28.1959 19.2372 28.2368 18.825C28.2777 18.4128 27.9768 18.0455 27.5646 18.0045L27.4164 19.4972ZM18.7892 18.7509L18.7117 18.0049C18.3588 18.0415 18.0799 18.3205 18.0433 18.6733L18.7892 18.7509ZM18.0429 27.5262C18.0838 27.9384 18.4512 28.2394 18.8634 28.1984C19.2755 28.1575 19.5765 27.7902 19.5356 27.378L18.0429 27.5262ZM27.5646 18.0045C24.0437 17.6548 22.0855 17.6543 18.7117 18.0049L18.8668 19.4968C22.1352 19.1572 23.9917 19.1571 27.4164 19.4972L27.5646 18.0045ZM19.5356 27.378C19.1954 23.9533 19.1956 22.0968 19.5352 18.8284L18.0433 18.6733C17.6927 22.0471 17.6932 24.0054 18.0429 27.5262L19.5356 27.378Z" fill="#262163"/>
</svg>
